<svg height="512pt" viewBox="0 0 512 512" width="512pt" xmlns="http://www.w3.org/2000/svg"><path d="m442.058594 512h-412.40625c-16.375 0-29.652344-13.277344-29.652344-29.652344v-452.695312c0-16.375 13.277344-29.652344 29.652344-29.652344h412.40625c16.378906 0 29.652344 13.277344 29.652344 29.652344v452.699218c0 16.371094-13.273438 29.648438-29.652344 29.648438zm0 0" fill="#69ebfc"/><path d="m442.058594 0h-412.40625c-16.375 0-29.652344 13.277344-29.652344 29.652344v14c0-16.375 13.277344-29.652344 29.652344-29.652344h412.40625c16.378906 0 29.652344 13.277344 29.652344 29.652344v-14c0-16.375-13.273438-29.652344-29.652344-29.652344zm0 0" fill="#a1f1fc"/><path d="m82.792969 0h-53.140625c-16.375 0-29.652344 13.277344-29.652344 29.652344v452.699218c0 16.371094 13.277344 29.648438 29.652344 29.648438h53.140625zm0 0" fill="#5fd4e3"/><path d="m29.652344 14h53.140625v-14h-53.140625c-16.375 0-29.652344 13.277344-29.652344 29.652344v14c0-16.375 13.277344-29.652344 29.652344-29.652344zm0 0" fill="#69ebfc"/><path d="m442.058594 512h-412.40625c-16.375 0-29.652344-13.277344-29.652344-29.652344v-14c0 16.375 13.277344 29.652344 29.652344 29.652344h412.40625c16.378906 0 29.652344-13.277344 29.652344-29.652344v14c0 16.375-13.273438 29.652344-29.652344 29.652344zm0 0" fill="#5fd4e3"/><path d="m29.652344 498h53.140625v14h-53.140625c-16.375 0-29.652344-13.277344-29.652344-29.652344v-14c0 16.375 13.277344 29.652344 29.652344 29.652344zm0 0" fill="#55bfcc"/><path d="m408.238281 256c0 72.34375-58.644531 130.988281-130.984375 130.988281-72.34375 0-130.988281-58.644531-130.988281-130.988281s58.644531-130.988281 130.988281-130.988281c72.339844 0 130.984375 58.644531 130.984375 130.988281zm0 0" fill="#6770e6"/><path d="m238.726562 221.835938c4.851563-3.148438 9.839844-6.140626 14.203126-9.9375 6.582031-5.714844 10.410156-11.976563 2.574218-19.8125 0 0-21.082031-21.082032-21.082031-21.082032-3.238281-3.242187-8.613281-4.695312-12.851563-2.667968-2.277343 1.089843-4.148437 2.855468-5.945312 4.628906-1.777344 1.757812-3.515625 3.535156-5.195312 5.339844-14.140626 15.199218-24.3125 32.335937-21.214844 54.234374 1.605468 11.339844 6.289062 22.058594 12.109375 31.835938 16.066406 27 40.480469 51.445312 67.558593 67.558594 9.777344 5.820312 20.492188 10.503906 31.835938 12.109375 21.898438 3.097656 39.035156-7.074219 54.234375-21.214844 1.804687-1.679687 3.582031-3.417969 5.339844-5.195313 1.773437-1.792968 3.539062-3.667968 4.628906-5.945312 2.027344-4.238281.570313-9.613281-2.667969-12.851562 0 0-21.082031-21.082032-21.082031-21.082032-7.835937-7.835937-14.097656-4.007812-19.816406 2.574219-3.792969 4.363281-6.785157 9.351563-9.933594 14.203125-2.367187 3.644531-4.972656 6.730469-9.65625 6.371094-10.039063-.773438-19.722656-9.3125-27.066406-15.464844-9.933594-8.316406-19.167969-17.570312-27.433594-27.546875-5.96875-7.195313-14.152344-16.613281-14.90625-26.394531-.363281-4.6875 2.71875-7.296875 6.367187-9.660156zm0 0" fill="#ffefe4"/><path d="m221.566406 168.335938c-2.277344 1.085937-4.152344 2.851562-5.945312 4.628906-.304688.300781-.597656.601562-.898438.902344l38.113282 38.113281c.03125-.027344.0625-.050781.09375-.078125 6.582031-5.71875 10.410156-11.980469 2.574218-19.816406 0 0-21.082031-21.082032-21.082031-21.082032-3.242187-3.242187-8.617187-4.695312-12.855469-2.667968zm0 0" fill="#edd4c2"/><path d="m362.25 298.832031s-21.082031-21.082031-21.082031-21.082031c-7.835938-7.835938-14.097657-4.007812-19.816407 2.574219-.027343.03125-.050781.0625-.078124.09375l38.113281 38.113281c.300781-.300781.601562-.59375.902343-.898438 1.773438-1.792968 3.539063-3.667968 4.632813-5.945312 2.019531-4.242188.566406-9.617188-2.671875-12.855469zm0 0" fill="#edd4c2"/><path d="m499.359375 151.921875h-27.648437v-100.355469h27.648437c6.984375 0 12.640625 5.660156 12.640625 12.640625v75.070313c0 6.984375-5.660156 12.644531-12.640625 12.644531zm0 0" fill="#ff8354"/><path d="m499.359375 272.273438h-27.648437v-100.351563h27.648437c6.984375 0 12.640625 5.65625 12.640625 12.636719v75.070312c0 6.984375-5.660156 12.644532-12.640625 12.644532zm0 0" fill="#d476e2"/><path d="m499.359375 392.625h-27.648437v-100.351562h27.648437c6.984375 0 12.640625 5.660156 12.640625 12.636718v75.070313c0 6.984375-5.660156 12.644531-12.640625 12.644531zm0 0" fill="#edd4c2"/></svg>